<svg xmlns="http://www.w3.org/2000/svg" viewBox="0 0 300 218.45" id="man-working-on-laptop-while-getting-online-earning-money-idea">
  <g>
    <g id="Layer_1">
      <g>
        <g>
          <path fill="#eaf3fa" d="M.25,124.84c2.08,17.07,16.47,29.36,32.15,27.46,15.68-1.91,26.7-17.29,24.62-34.36-2.08-17.07-16.47-29.36-32.15-27.46C9.2,92.38-1.83,107.77.25,124.84Z"></path>
          <path fill="#eaf3fa" d="M299.23,157.9c-.27,2.43-.68,4.88-1.16,7.27-1.01,5.45-2.51,10.75-4.48,15.91-.63,1.73-1.33,3.47-2.05,5.16-.61,1.29-1.2,2.62-1.84,3.89v.02c-.78,1.52-1.56,3-2.41,4.48-1.04,1.86-2.18,3.72-3.36,5.54-1.54,2.32-3.17,4.61-4.9,6.85l-1.58,1.96v.02c-1.12,1.37-2.28,2.75-3.51,4.08-.08.08-.17.19-.25.27-.02,0-.02.02-.04.04-2.28,2.49-5.54,3.82-8.92,3.82H44.57c-5.32,0-10.08-3.47-11.71-8.56-.13-.36-.21-.63-.23-.76-.08-.3-.17-.59-.23-.89-7.54-28.27,12.83-43.19,25.63-62.33,1.37-2.09,2.68-4.2,3.85-6.4,2.24-4.2,3.99-8.73,4.9-13.65,2.89-15.34-10.01-30.81-12.02-47.03-.57-4.65-.59-9.44.08-14.28.21-1.67.53-3.34.93-5.03,3.66-16.1,14.66-31.93,35.18-41.56,4.71-2.22,9.47-4.2,14.22-5.98.63-.25,1.33-.51,1.99-.72.13-.04.25-.08.38-.13.08-.02.15-.04.23-.08.17-.06.32-.13.51-.17.15-.06.3-.11.46-.17,1.33-.49,2.7-.93,4.06-1.37,29.33-9.49,58.67-10.46,84.92-3.57,1.92.46,3.8,1.04,5.68,1.61.99.3,1.99.61,2.98.95,11.28,3.8,21.91,9.15,31.5,15.97,1.8,1.23,3.51,2.51,5.22,3.85,9.85,7.8,18.59,17.22,25.9,28.21,1.82,2.73,3.55,5.45,5.22,8.18,2.81,4.67,5.43,9.34,7.78,13.97,14.33,28,20.26,55.53,17.24,80.65Z"></path>
        </g>
        <g>
          <g>
            <rect width="66.98" height="30.73" x="196.99" y="91.84" fill="#82b479" transform="rotate(-65.52 230.5 107.203)"></rect>
            <path fill="#a8d2a2" d="M206.51,127.78l23.73-52.13c1.39.61,3.02,0,3.65-1.39,0,0,0-.01,0-.01l19.15,8.72s0,0,0,.01c-.64,1.4-.02,3.05,1.38,3.69,0,0,.02,0,.02,0l-23.73,52.13s-.02,0-.02-.01c-1.39-.63-3.03-.02-3.67,1.36l-19.15-8.72c.62-1.37.01-3-1.35-3.65Z"></path>
          </g>
          <path fill="#82b479" d="M227.21 114.39c3.97 1.81 8.64.06 10.45-3.91 1.81-3.97.06-8.65-3.91-10.45-3.97-1.81-8.64-.06-10.45 3.91-1.81 3.97-.05 8.64 3.91 10.45ZM220.89 128.26c1.04.47 2.27.02 2.75-1.03.47-1.04.01-2.27-1.03-2.74-1.05-.48-2.28-.02-2.75 1.02-.48 1.05-.01 2.28 1.03 2.75ZM237.28 93.43c1.44.66 3.13.01 3.79-1.42.65-1.44.02-3.13-1.42-3.78-1.44-.66-3.14-.03-3.8 1.41-.65 1.43-.01 3.14 1.43 3.79Z"></path>
        </g>
        <g>
          <g>
            <rect width="66.98" height="30.73" x="163.22" y="97.28" fill="#82b479" transform="rotate(-81.11 196.714 112.647)"></rect>
            <path fill="#a8d2a2" d="M179.14,138.9l8.85-56.59c1.5.21,2.91-.82,3.14-2.32,0,0,0,0,0-.01l20.78,3.25s0,0,0,.01c-.24,1.52.8,2.94,2.32,3.18,0,0,.02,0,.02,0l-8.85,56.58s-.02,0-.02,0c-1.51-.24-2.93.8-3.17,2.3l-20.78-3.25c.23-1.49-.79-2.9-2.28-3.15Z"></path>
          </g>
          <path fill="#82b479" d="M195.48 120.44c4.31.67 8.34-2.27 9.02-6.57.67-4.31-2.27-8.34-6.58-9.02-4.3-.67-8.34 2.27-9.02 6.58-.67 4.31 2.27 8.34 6.58 9.01ZM193.13 135.5c1.13.18 2.19-.59 2.37-1.73.18-1.13-.59-2.19-1.73-2.36-1.13-.18-2.2.59-2.38 1.72-.18 1.14.6 2.2 1.74 2.37ZM199.56 97.55c1.56.24 3.02-.83 3.27-2.38.24-1.56-.82-3.02-2.38-3.26-1.57-.24-3.03.82-3.28 2.38-.24 1.55.83 3.03 2.4 3.27Z"></path>
        </g>
        <g>
          <g>
            <rect width="66.98" height="30.73" x="198.54" y="103.09" fill="#82b479" transform="rotate(-38.03 232.051 118.455)"></rect>
            <path fill="#a8d2a2" d="M201.27,125.63l45.12-35.29c.96,1.18,2.68,1.39,3.88.45,0,0,0,0,0-.01l12.96,16.57s0,0,0,0c-1.21.95-1.43,2.7-.48,3.9,0,0,.01.02.01.02l-45.11,35.28s-.01-.02-.01-.02c-.94-1.2-2.68-1.42-3.89-.49l-12.96-16.57c1.19-.93,1.4-2.66.48-3.86Z"></path>
          </g>
          <path fill="#82b479" d="M225.89 123.25c2.65 3.39 7.55 3.99 10.94 1.34 3.39-2.65 3.99-7.55 1.34-10.94-2.65-3.39-7.55-3.99-10.94-1.34-3.39 2.65-3.99 7.55-1.33 10.94ZM213.81 132.7c.71.9 2.01 1.06 2.91.35.9-.7 1.06-2 .35-2.91-.71-.9-2.01-1.07-2.91-.37-.91.71-1.06 2.01-.35 2.92ZM243.26 109.94c1.01 1.29 2.86 1.51 4.14.5 1.28-1 1.51-2.85.5-4.14-1.01-1.29-2.87-1.52-4.15-.52-1.28 1-1.51 2.87-.5 4.15Z"></path>
        </g>
        <g>
          <path fill="#ffbc0a" d="M176.97,207.04v6.36c0,.23.02.46.11.66.27.96,1.16,1.69,2.24,1.69h64c1.07,0,1.98-.73,2.26-1.69.09-.21.11-.43.11-.66v-6.36c0-1.28-1.07-2.35-2.37-2.35h-64c-1.3,0-2.35,1.07-2.35,2.35Z"></path>
          <path fill="#dea61c" d="M177.08,214.07c.27.96,1.16,1.69,2.24,1.69h64c1.07,0,1.98-.73,2.26-1.69h-68.49Z" opacity=".3"></path>
          <path fill="#deec1c" d="M196.67,204.69v11.06h46.64c1.3,0,2.37-1.07,2.37-2.35v-6.36c0-1.28-1.07-2.35-2.37-2.35h-46.64Z" opacity=".3"></path>
        </g>
        <g>
          <path fill="#ffbc0a" d="M180.17,195.98v6.36c0,.23.02.46.11.66.27.96,1.16,1.69,2.24,1.69h64c1.07,0,1.98-.73,2.26-1.69.09-.21.11-.43.11-.66v-6.36c0-1.28-1.07-2.35-2.37-2.35h-64c-1.3,0-2.35,1.07-2.35,2.35Z"></path>
          <path fill="#dea61c" d="M180.29,203c.27.96,1.16,1.69,2.24,1.69h64c1.07,0,1.98-.73,2.26-1.69h-68.49Z" opacity=".3"></path>
          <path fill="#deec1c" d="M199.88,193.63v11.06h46.64c1.3,0,2.37-1.07,2.37-2.35v-6.36c0-1.28-1.07-2.35-2.37-2.35h-46.64Z" opacity=".3"></path>
        </g>
        <g>
          <path fill="#ffbc0a" d="M179.01,184.92v6.36c0,.23.02.46.11.66.27.96,1.16,1.69,2.24,1.69h64c1.07,0,1.98-.73,2.26-1.69.09-.21.11-.43.11-.66v-6.36c0-1.28-1.07-2.35-2.37-2.35h-64c-1.3,0-2.35,1.07-2.35,2.35Z"></path>
          <path fill="#dea61c" d="M179.12,191.94c.27.96,1.16,1.69,2.24,1.69h64c1.07,0,1.98-.73,2.26-1.69h-68.49Z" opacity=".3"></path>
          <path fill="#deec1c" d="M198.71,182.57v11.06h46.64c1.3,0,2.37-1.07,2.37-2.35v-6.36c0-1.28-1.07-2.35-2.37-2.35h-46.64Z" opacity=".3"></path>
        </g>
        <g>
          <path fill="#ffbc0a" d="M184.83,173.85v6.36c0,.23.02.46.11.66.27.96,1.16,1.69,2.24,1.69h64c1.07,0,1.98-.73,2.26-1.69.09-.21.11-.43.11-.66v-6.36c0-1.28-1.07-2.35-2.37-2.35h-64c-1.3,0-2.35,1.07-2.35,2.35Z"></path>
          <path fill="#dea61c" d="M184.94,180.88c.27.96,1.16,1.69,2.24,1.69h64c1.07,0,1.98-.73,2.26-1.69h-68.49Z" opacity=".3"></path>
          <path fill="#deec1c" d="M204.54,171.5v11.06h46.64c1.3,0,2.37-1.07,2.37-2.35v-6.36c0-1.28-1.07-2.35-2.37-2.35h-46.64Z" opacity=".3"></path>
        </g>
        <g>
          <path fill="#ffbc0a" d="M182.5,162.79v6.36c0,.23.02.46.11.66.27.96,1.16,1.69,2.23,1.69h64c1.07,0,1.98-.73,2.26-1.69.09-.21.11-.43.11-.66v-6.36c0-1.28-1.07-2.35-2.37-2.35h-64c-1.3,0-2.35,1.07-2.35,2.35Z"></path>
          <path fill="#dea61c" d="M182.61,169.81c.27.96,1.16,1.69,2.23,1.69h64c1.07,0,1.98-.73,2.26-1.69h-68.49Z" opacity=".3"></path>
          <path fill="#deec1c" d="M202.21,160.44v11.06h46.64c1.3,0,2.37-1.07,2.37-2.35v-6.36c0-1.28-1.07-2.35-2.37-2.35h-46.64Z" opacity=".3"></path>
        </g>
        <g>
          <path fill="#ffbc0a" d="M179.3,151.72v6.36c0,.23.02.46.11.66.27.96,1.16,1.69,2.24,1.69h64c1.07,0,1.98-.73,2.26-1.69.09-.21.11-.43.11-.66v-6.36c0-1.28-1.07-2.35-2.37-2.35h-64c-1.3,0-2.35,1.07-2.35,2.35Z"></path>
          <path fill="#dea61c" d="M179.41,158.75c.27.96,1.16,1.69,2.24,1.69h64c1.07,0,1.98-.73,2.26-1.69h-68.49Z" opacity=".3"></path>
          <path fill="#deec1c" d="M199,149.38v11.06h46.64c1.3,0,2.37-1.07,2.37-2.35v-6.36c0-1.28-1.07-2.35-2.37-2.35h-46.64Z" opacity=".3"></path>
        </g>
        <g>
          <path fill="#ffbc0a" d="M184.83,140.66v6.36c0,.23.02.46.11.66.27.96,1.16,1.69,2.24,1.69h64c1.07,0,1.98-.73,2.26-1.69.09-.21.11-.43.11-.66v-6.36c0-1.28-1.07-2.35-2.37-2.35h-64c-1.3,0-2.35,1.07-2.35,2.35Z"></path>
          <path fill="#dea61c" d="M184.94,147.68c.27.96,1.16,1.69,2.24,1.69h64c1.07,0,1.98-.73,2.26-1.69h-68.49Z" opacity=".3"></path>
          <path fill="#deec1c" d="M204.54,138.31v11.06h46.64c1.3,0,2.37-1.07,2.37-2.35v-6.36c0-1.28-1.07-2.35-2.37-2.35h-46.64Z" opacity=".3"></path>
        </g>
        <g>
          <path fill="#ffbc0a" d="M189.78,129.6v6.36c0,.23.02.46.11.66.27.96,1.16,1.69,2.24,1.69h64c1.07,0,1.98-.73,2.26-1.69.09-.21.11-.43.11-.66v-6.36c0-1.28-1.07-2.35-2.37-2.35h-64c-1.3,0-2.35,1.07-2.35,2.35Z"></path>
          <path fill="#dea61c" d="M189.89,136.62c.27.96,1.16,1.69,2.24,1.69h64c1.07,0,1.98-.73,2.26-1.69h-68.49Z" opacity=".3"></path>
          <path fill="#deec1c" d="M209.48,127.25v11.06h46.64c1.3,0,2.37-1.07,2.37-2.35v-6.36c0-1.28-1.07-2.35-2.37-2.35h-46.64Z" opacity=".3"></path>
        </g>
        <g>
          <path fill="#ffbc0a" d="M182.11,118.53v6.36c0,.23.02.46.11.66.27.96,1.16,1.69,2.24,1.69h64c1.07,0,1.98-.73,2.26-1.69.09-.21.11-.43.11-.66v-6.36c0-1.28-1.07-2.35-2.37-2.35h-64c-1.3,0-2.35,1.07-2.35,2.35Z"></path>
          <path fill="#dea61c" d="M182.23,125.56c.27.96,1.16,1.69,2.24,1.69h64c1.07,0,1.98-.73,2.26-1.69h-68.49Z" opacity=".3"></path>
          <path fill="#deec1c" d="M201.82,116.18v11.06h46.64c1.3,0,2.37-1.07,2.37-2.35v-6.36c0-1.28-1.07-2.35-2.37-2.35h-46.64Z" opacity=".3"></path>
        </g>
        <path fill="#606060" d="M230.48,210.46h0c6.27,5.28,13.64,7.62,20.56,5.71l7.68-2.11c6.92-1.9,12.05-7.66,14.72-15.39-.03.09-.07.16-.11.25,2.66-7.5,2.99-16.9.35-26.45-5.32-19.23-20.65-31.78-34.24-28.04l-7.68,2.11c-6.76,1.86-11.8,7.4-14.53,14.86.03-.1.05-.19.09-.29-.04.12-.08.25-.12.37-.03.1-.06.2-.09.29-.3.87-.58,1.74-.82,2.65,0,.03-.01.07-.02.1-1.72,6.56-1.78,14.27.16,22.14,0,.04.02.07.03.11.11.45.2.89.33,1.34.06.2.13.38.18.58h0c2.66,9.18,7.59,16.79,13.51,21.77Z" opacity=".2"></path>
        <g>
          <path fill="#ffdc0a" d="M277.63,172.13c-5.38-19.51-20.93-32.24-34.73-28.43-13.8,3.8-20.62,22.7-15.24,42.21,5.38,19.5,20.93,32.23,34.73,28.43,13.79-3.81,20.62-22.71,15.24-42.21Z"></path>
          <path fill="#fce06b" d="M227.95,185.11c5.39,19.52,20.94,32.26,34.75,28.45,6.78-1.87,11.87-7.39,14.66-14.84-2.72,7.85-7.93,13.7-14.96,15.64-13.8,3.81-29.36-8.92-34.75-28.45-2.74-9.93-2.32-19.71.58-27.41-2.63,7.58-2.93,17.01-.29,26.6Z" opacity=".5"></path>
          <path fill="#f0c210" d="M270.13,174.2c-3.77-13.65-14.64-22.56-24.3-19.9-9.66,2.67-14.43,15.89-10.66,29.54,3.77,13.65,14.65,22.56,24.3,19.89,9.66-2.66,14.43-15.89,10.66-29.54Z"></path>
          <path fill="#d9ac00" d="M259.47,203.74c9.46-2.61,14.23-15.35,10.87-28.71.08.28.17.55.24.82,3.77,13.65-1,26.88-10.66,29.54-9.65,2.66-20.53-6.25-24.3-19.9-.08-.28-.14-.55-.22-.83,3.97,13.19,14.6,21.69,24.06,19.07Z" opacity=".53"></path>
          <path fill="#fff" d="M245.84,154.3c-9.49,2.62-14.26,15.43-10.85,28.82-.07-.24-.14-.47-.21-.71-3.77-13.65,1-26.87,10.66-29.54,9.66-2.66,20.53,6.24,24.3,19.89.07.24.13.48.19.72-3.94-13.24-14.61-21.8-24.09-19.18Z" opacity=".2"></path>
          <g>
            <path fill="#ffdc0a" d="M246.02,179.91c.87.57,1.84,1.02,2.92,1.36,1.07.34,2.23.64,3.45.92.64.15,1.18.33,1.63.52.46.2.84.43,1.15.68.31.26.56.56.75.92.19.35.35.76.48,1.24.12.44.19.88.21,1.3.02.42-.02.8-.12,1.14-.1.34-.28.64-.52.9-.24.25-.57.44-.98.55-.36.1-.73.1-1.08.03-.36-.08-.7-.27-1.03-.57-.33-.31-.64-.73-.92-1.26-.28-.54-.5-1.22-.5-1.22-.14-.43-.51-.7-.82-.61l-4.39,1.21c-.59.16-.42.94-.29,1.3.32.9.69,1.72,1.13,2.45.62,1.03,1.32,1.88,2.12,2.55.8.67,1.66,1.15,2.61,1.44.94.3,2.34.3,2.34.3.09,0,.18,0,.29,0,0,0,0,0,0,0l1.16,4.21c.12.43.47.71.79.63l2.78-.77c.31-.09.47-.5.35-.94l-1.16-4.21s-.02-.03-.02-.04c.61-.33,1.18-.7,1.66-1.16.73-.69,1.29-1.48,1.7-2.37.41-.9.64-1.89.7-2.97.06-1.07-.07-2.2-.4-3.39-.39-1.41-.91-2.57-1.55-3.47-.64-.9-1.4-1.63-2.26-2.18-.86-.56-1.84-.99-2.91-1.31-1.07-.31-2.23-.6-3.48-.85-.6-.13-1.12-.29-1.56-.47-.44-.18-.82-.4-1.14-.66-.32-.27-.58-.59-.8-.98-.22-.39-.41-.87-.57-1.43-.12-.45-.19-.87-.2-1.28,0-.41.04-.78.17-1.12.12-.34.3-.64.57-.88.26-.25.59-.44,1.01-.55.42-.12.85-.14,1.28-.09.43.05.85.22,1.25.51.4.29.78.73,1.13,1.29.35.58.65,1.49.65,1.49.14.42.51.7.82.61l4.46-1.23c.5-.14.37-.78.28-1.07-.43-1.3-.95-2.4-1.56-3.3-.75-1.1-1.59-1.96-2.51-2.57-.91-.61-1.88-1-2.9-1.17-.87-.14-2-.11-2.31-.09,0-.04,0-.07-.01-.11l-1.16-4.21c-.12-.43-.47-.72-.79-.63l-2.78.77c-.31.09-.47.51-.35.94l1.16,4.21s.02.04.03.07c-.72.37-1.38.78-1.93,1.31-.7.66-1.25,1.43-1.64,2.31-.39.88-.61,1.85-.65,2.91-.05,1.07.09,2.22.43,3.47.39,1.39.91,2.55,1.56,3.45.65.89,1.41,1.63,2.28,2.2Z"></path>
            <path fill="#f8de6e" d="M258.21,178.39c-.86-.56-1.84-.99-2.91-1.31-1.07-.31-2.23-.6-3.48-.85-.6-.13-1.12-.29-1.56-.47-.44-.18-.82-.4-1.14-.66-.32-.27-.58-.59-.8-.98-.19-.32-.34-.72-.48-1.17.02.08.03.16.05.25.16.57.35,1.04.57,1.43.22.39.48.71.8.98.31.26.7.48,1.13.66.45.18.96.34,1.56.47,1.24.26,2.41.54,3.47.86,1.07.32,2.05.75,2.91,1.31.87.55,1.62,1.28,2.26,2.18.6.84,1.08,1.92,1.47,3.21-.02-.08-.04-.16-.06-.25-.39-1.41-.91-2.57-1.55-3.47-.64-.9-1.4-1.63-2.26-2.18ZM258.52,194.49v-.05s-.02,0-.02,0c0,.01.02.02.02.04ZM250.01,163.62s0,.07,0,.11c.31-.01,1.45-.05,2.31.09,1.02.17,1.99.56,2.9,1.18.92.61,1.76,1.47,2.51,2.57.58.85,1.08,1.9,1.5,3.11-.02-.12-.05-.24-.08-.33-.43-1.3-.95-2.4-1.56-3.3-.75-1.1-1.59-1.96-2.51-2.57-.91-.61-1.88-1-2.9-1.17-.86-.15-1.96-.11-2.3-.1l.11.4ZM254.6,195.57s0,0,0,0h0s0,0,0,0ZM245.27,159.55l2.78-.77c.31-.09.67.2.79.63l-.14-.51c-.12-.43-.47-.72-.79-.63l-2.78.77c-.31.09-.47.51-.35.94l.14.51c-.12-.43.04-.86.35-.94ZM256.62,186.85c.02.42-.02.8-.12,1.14-.1.34-.28.64-.52.9-.24.25-.57.44-.98.55-.36.1-.73.1-1.08.03-.36-.08-.7-.27-1.03-.57-.33-.31-.64-.73-.92-1.26-.28-.54-.5-1.22-.5-1.22-.14-.43-.51-.7-.82-.61l-4.39,1.21c-.59.16-.42.94-.29,1.3.01.03.03.06.04.09-.06-.36-.02-.78.39-.89l4.39-1.21c.31-.09.68.19.82.61,0,0,.22.68.5,1.22.28.53.59.95.92,1.26.34.3.68.5,1.03.58.36.08.72.07,1.08-.03.41-.11.74-.29.98-.55.25-.26.42-.55.52-.89.1-.34.14-.73.12-1.14-.02-.43-.09-.86-.22-1.3-.03-.09-.06-.16-.09-.25.09.35.14.7.16,1.04ZM241.89,171.31c.05-1.07.26-2.04.65-2.91.39-.88.93-1.66,1.63-2.31.56-.53,1.21-.95,1.93-1.3,0-.03-.02-.05-.03-.08l-.12-.43c-.72.36-1.37.77-1.92,1.3-.7.66-1.25,1.43-1.64,2.31-.39.88-.61,1.85-.65,2.91-.05,1.07.09,2.22.43,3.47.02.08.05.16.08.24-.29-1.14-.42-2.21-.37-3.2Z"></path>
            <path fill="#c4991a" d="M259.02,198.53l-2.78.77c-.31.09-.67-.2-.79-.62l.17.6c.12.43.47.71.79.63l2.78-.77c.31-.09.47-.5.35-.94l-.17-.6c.12.43-.04.86-.35.94ZM262.25,186.83c-.06,1.08-.29,2.07-.7,2.96-.41.9-.97,1.69-1.7,2.38-.48.45-1.05.83-1.66,1.16,0,.01.02.03.02.04l.16.56c.6-.33,1.17-.7,1.65-1.16.73-.69,1.29-1.48,1.7-2.37.41-.9.64-1.89.7-2.97.06-1.07-.07-2.2-.4-3.39-.03-.1-.07-.2-.09-.31.26,1.08.38,2.11.33,3.1ZM245.96,188.31c.32.9.69,1.72,1.13,2.45.62,1.03,1.32,1.88,2.12,2.55.8.67,1.66,1.15,2.61,1.44.94.3,2.34.3,2.34.3.08,0,.18,0,.29,0l-.16-.59s0,0,0-.02c-.11,0-.2,0-.29.01,0,0-1.4-.01-2.34-.31-.94-.29-1.81-.78-2.61-1.45-.79-.67-1.5-1.52-2.12-2.55-.41-.69-.77-1.46-1.08-2.3.03.17.07.34.11.46ZM246.02,179.91c.87.57,1.84,1.02,2.92,1.36,1.07.34,2.23.64,3.45.92.64.15,1.18.33,1.63.52.46.2.84.43,1.15.68.31.26.56.56.75.92.14.27.27.59.38.93-.02-.1-.04-.2-.06-.3-.13-.47-.3-.88-.48-1.24-.19-.36-.44-.65-.75-.92-.31-.26-.69-.49-1.15-.68-.45-.2-.99-.38-1.63-.53-1.23-.28-2.38-.58-3.45-.92-1.08-.34-2.05-.8-2.92-1.36-.87-.57-1.63-1.3-2.28-2.19-.61-.84-1.09-1.9-1.47-3.16.03.1.04.2.07.31.39,1.39.91,2.55,1.56,3.45.65.89,1.41,1.63,2.28,2.2ZM245.78,163.59l.02.08s0,0,0,0c0-.03-.03-.05-.03-.08ZM249.7,162.51s0,.08.01.11c0,0,.01,0,.01,0l-.03-.11ZM247.55,171.4c0-.41.04-.78.17-1.12.12-.34.3-.64.57-.88.26-.25.59-.44,1.01-.55.42-.12.85-.14,1.28-.09.43.05.85.22,1.25.51.4.29.78.73,1.13,1.29.35.58.65,1.49.65,1.49.14.42.51.7.82.61l4.46-1.23c.5-.14.37-.78.28-1.07-.03-.09-.06-.16-.09-.24.03.29-.01.62-.36.71l-4.46,1.23c-.31.09-.69-.19-.83-.62,0,0-.31-.91-.65-1.48-.35-.57-.72-.99-1.13-1.29-.4-.29-.82-.46-1.25-.51-.43-.05-.85-.02-1.27.09-.42.12-.76.3-1.01.55-.26.25-.45.55-.57.89-.12.34-.17.72-.17,1.13.02.41.08.84.2,1.28.03.12.07.21.1.32-.08-.34-.13-.67-.14-.99Z"></path>
          </g>
          <path fill="#ffbc0a" d="M228.15,158.8c.03-.1.06-.2.09-.3-.05.12-.08.25-.12.37-.03.1-.06.2-.1.29-.31.88-.59,1.77-.84,2.69,0,.03-.01.07-.02.11-1.86,7.07-1.85,15.45.5,23.95,5.38,19.52,20.94,32.26,34.75,28.45l-7.8,2.15c-13.81,3.81-29.36-8.93-34.75-28.45-2.35-8.5-2.35-16.88-.5-23.95,0-.04.01-.07.02-.1.24-.92.53-1.81.84-2.69.04-.09.06-.2.09-.29.04-.12.08-.25.12-.37-.04.09-.06.19-.09.29,2.77-7.58,7.9-13.21,14.76-15.1l7.8-2.15c-6.86,1.89-11.99,7.52-14.76,15.1Z"></path>
          <path fill="#fce025" d="M228.45,158.06l-7.8,2.15c.32-.81.66-1.61,1.03-2.37l7.8-2.15c-.38.76-.72,1.56-1.04,2.37Z" opacity=".2"></path>
          <path fill="#d58d05" d="M228.45,158.06c-.1.25-.21.48-.31.74.03-.1.06-.2.09-.3-.05.12-.08.25-.12.37-.03.1-.06.2-.1.29-.13.39-.25.81-.38,1.21l-7.8,2.15c.13-.4.24-.81.37-1.21.04-.09.06-.2.09-.29.04-.12.08-.25.12-.37-.04.09-.06.19-.09.29.09-.26.21-.49.31-.74l7.8-2.15Z" opacity=".2"></path>
          <path fill="#fce025" d="M219.06,184.74l7.8-2.15c.13.65.3,1.31.47,1.96l-7.8,2.15c-.16-.66-.33-1.31-.47-1.96Z" opacity=".2"></path>
          <path fill="#d58d05" d="M227.66,185.92c.05.2.13.39.18.58l-7.8,2.15c-.05-.2-.13-.39-.18-.58-.12-.46-.22-.9-.33-1.36l7.8-2.15c.11.45.21.91.33,1.36Z" opacity=".2"></path>
          <path fill="#fce025" d="M233.73,210.74l7.8-2.15c.65.55,1.32,1.05,2,1.54l-7.8,2.15c-.68-.48-1.34-.98-2-1.54Z" opacity=".2"></path>
          <path fill="#d58d05" d="M235.73,212.27l7.8-2.15c.74.53,1.49,1.02,2.26,1.47l-7.8,2.15c-.76-.45-1.51-.94-2.26-1.47Z" opacity=".2"></path>
        </g>
        <g>
          <path fill="#82b479" d="M50.16,165.75s3.16-1.48,3.82-7.22c.59-5.12,3.1-15.44,7.9-19.85,0,0-3.35-.58-7.29,3.55-3.94,4.13-7.49,10.77-7.95,14.58-.52,4.31.98,6.79,3.53,8.94Z"></path>
          <path fill="#649a5a" d="M49.44,195.99h0c-.11,0-.2-.09-.2-.21l.16-19.03c.03-3.91.28-7.67.73-11.17,3.1-24.08,10.72-26.74,11.04-26.84.11-.03.22.03.26.13.03.11-.03.22-.13.26-.08.03-7.7,2.75-10.76,26.5-.45,3.49-.69,7.23-.73,11.12l-.16,19.03c0,.11-.09.2-.21.2Z"></path>
          <path fill="#82b479" d="M45.58 179.55s-6.51-.8-11.22-6.31c-4.71-5.51-12.92-11.92-17.03-12.32 0 0 7.11-2.71 16.53 1.1 9.42 3.81 12.92 12.22 11.72 17.53ZM51.12 183.22s5.46-2.42 6.76-7.58c1.3-5.16 3.12-15.11 6.08-16.14 0 0-5.3-1.99-11.24 6.35-4.09 5.75-4.41 9.88-3.48 13.9.5 2 1.87 3.47 1.87 3.47ZM55.4 187.77s3.01-6.91 9.42-6.31c6.41.6 7.82 5.91 7.82 5.91 0 0-4.76-1.85-8.32-.6-3.56 1.25-6.71 3.31-8.92 1ZM58.83 179.21s19.46-14.74 19.93-15.06c.47-.32-3.5-1.41-9.49.98-5.99 2.39-10.91 6.63-10.44 14.07ZM44.76 166.51s-13.39-20.41-13.72-20.87c-.34-.46 3.77-.15 8.61 4.11 4.84 4.26 8.06 9.9 5.12 16.76ZM47.88 192.58s-1.7-8.32-16.13-7.92c0 0 7.81 11.52 16.13 7.92Z"></path>
          <path fill="#649a5a" d="M50.75,195.89c-.11,0-.21-.09-.21-.2v-.89c-.06-6.76-.1-12.11,2.33-19.82.14-.44.27-.89.39-1.35.1-.35.2-.71.3-1.06,3.69-12.33,9.2-13.08,9.43-13.1.13-.02.21.07.23.18.01.11-.07.21-.18.23-.05,0-5.47.78-9.08,12.81-.11.35-.2.7-.3,1.05-.13.45-.25.91-.4,1.36-2.41,7.65-2.37,12.96-2.32,19.69v.89c0,.11-.09.21-.2.21h0Z"></path>
          <path fill="#649a5a" d="M51.97 195.43s-.02 0-.02 0c-.11-.01-.19-.11-.18-.23 1.14-9.85 2.8-12.79 6.93-16.16 4.04-3.29 19.78-14.95 19.94-15.06.09-.07.22-.05.29.04.07.09.05.22-.04.29-.16.12-15.89 11.77-19.92 15.05-4.03 3.28-5.66 6.18-6.78 15.88-.01.1-.1.18-.2.18ZM47.84 195.48c-.11 0-.21-.09-.21-.21 0-.24-.04-23.84-3.05-28.66-3.04-4.87-13.4-20.55-13.51-20.71-.06-.1-.04-.22.06-.29.1-.06.22-.04.29.06.1.16 10.47 15.85 13.51 20.72 3.07 4.92 3.11 27.9 3.11 28.88 0 .11-.09.21-.21.21Z"></path>
          <path fill="#649a5a" d="M47.65,192.79s-.06,0-.09-.02l-15.12-7.51c-.1-.05-.14-.17-.09-.28.05-.1.17-.14.28-.09l15.12,7.51c.1.05.14.17.09.28-.04.07-.11.11-.18.11Z"></path>
          <path fill="#649a5a" d="M50.09 195.51h0c-.11 0-.2-.1-.2-.21 0-.05.12-4.63-2.02-10.97-2.12-6.3-10.7-14.37-16.07-17.78-7.35-4.66-13.31-5.43-13.37-5.43-.11-.01-.19-.12-.18-.23.01-.11.12-.19.23-.18.06 0 6.1.78 13.54 5.49 5.22 3.31 13.99 11.31 16.24 17.99 2.16 6.42 2.04 11.07 2.04 11.12 0 .11-.1.2-.21.2ZM52.65 195.23s-.03 0-.04 0c-.11-.02-.18-.13-.16-.24 1.52-7.59 5.53-12.09 11.3-12.69 5.88-.62 8.55 4.43 8.58 4.48.05.1.01.23-.09.28-.1.05-.23.01-.28-.09-.03-.05-2.58-4.84-8.17-4.26-5.58.58-9.46 4.97-10.94 12.36-.02.1-.11.17-.2.17Z"></path>
          <path fill="#f2a74c" d="M62.4,194.33s0,.96-.07,2.43c0,.3-.02.64-.04.99-.03.51-.06,1.06-.11,1.63-.02.32-.05.66-.08.99-.05.55-.1,1.1-.17,1.66-.04.33-.08.67-.13,1-.07.56-.16,1.11-.26,1.64-.06.33-.12.66-.19.98-.13.59-.27,1.14-.43,1.65-.11.37-.23.72-.36,1.03-.13.31-.27.6-.42.85-.18.28-.36.56-.57.82-.32.41-.68.8-1.06,1.13-2.13,1.91-5.04,2.69-7.47,2.69s-5.85-.32-8.47-2.63c-.39-.33-.76-.72-1.11-1.14-.22-.27-.43-.56-.64-.86-.17-.25-.32-.52-.46-.82-.17-.32-.31-.68-.45-1.05h0c-.19-.51-.35-1.07-.5-1.65-.09-.33-.17-.67-.24-1.01-.12-.53-.22-1.08-.29-1.63-.06-.33-.1-.68-.14-1.01h0c-.07-.55-.13-1.1-.18-1.64-.03-.34-.06-.68-.09-1.01-.04-.57-.07-1.12-.09-1.62-.02-.35-.03-.69-.04-.99-.04-1.46-.02-2.43-.02-2.43,0,0,10.86,1.56,24.08,0Z"></path>
          <path fill="#f2a74c" d="M51.05,213.83c-1.61,0-3.52-.14-5.39-.82-.03.11-.07.22-.07.34,0,1.28,2.17,2.32,4.85,2.32s4.85-1.04,4.85-2.32c0-.1-.04-.19-.06-.29-1.4.52-2.86.77-4.18.77Z"></path>
          <g>
            <path fill="#d38b3d" d="M62.33 196.75c0 .3-.02.64-.04.99-4.33.48-8.43.65-11.98.65-6.13 0-10.63-.49-11.94-.65-.02-.35-.03-.69-.04-.99 1.59.21 11.84 1.38 23.99 0ZM62.18 199.38c-.02.32-.05.66-.08.99-4.27.5-8.29.67-11.78.67-6.2 0-10.68-.52-11.77-.66-.03-.34-.06-.68-.09-1.01.67.1 11.16 1.49 23.72 0ZM61.94 202.03c-.04.33-.08.67-.13 1-4.16.49-8.1.66-11.49.66-5.97 0-10.31-.51-11.45-.66-.06-.33-.1-.68-.14-1.01.42.06 10.79 1.5 23.2 0ZM61.56 204.67c-.06.33-.12.66-.19.98-4 .51-7.78.68-11.04.68-5.69 0-9.84-.51-10.92-.66-.09-.33-.17-.67-.24-1.01.04 0 .08 0 .12 0 .1.02 10.12 1.54 22.16 0 .04 0 .07 0 .11 0ZM60.94 207.3c-.11.37-.23.72-.36 1.03-3.71.48-7.21.64-10.25.64-4.84 0-8.51-.41-9.95-.6-.17-.32-.31-.68-.45-1.05.87.13 10.05 1.45 20.97-.02h.05ZM59.58 210.01c-.32.41-.68.8-1.06 1.13-2.96.36-5.74.49-8.19.49-3.33 0-6.05-.24-7.75-.43-.39-.33-.76-.72-1.11-1.14 2.18.32 9.52 1.17 18.11-.05Z"></path>
          </g>
          <path fill="#d38b3d" d="M50.46,213.96c-1.52,0-3.25-.18-5.01-.73-.11-.03-.17-.15-.13-.26.03-.11.15-.17.26-.13,4.93,1.55,9.7.1,9.74.08.1-.03.22.03.26.14.03.11-.03.22-.13.26-.03,0-2.12.65-4.98.65Z"></path>
        </g>
        <path fill="#cae4f2" d="M106.64,52.33c10.31,0,18.66,8.35,18.66,18.66,0,3.9-1.2,7.52-3.25,10.52l3.65,6.67-7.18-2.8c-3.23,2.67-7.36,4.27-11.88,4.27-10.31,0-18.66-8.35-18.66-18.66s8.35-18.66,18.66-18.66Z"></path>
        <g>
          <g>
            <path fill="#fdd43e" d="M120.83,43.39c-1.42-9.39-8.62-11.67-13.85-11.67s-12.43,2.27-13.85,11.67,7.01,14.42,8.35,20.24h10.99c1.34-5.81,9.76-10.85,8.35-20.24Z"></path>
            <path fill="#fbc42a" d="M120.83,43.39c-.55-3.64-1.97-6.2-3.8-7.98.78,1.43,1.38,3.07,1.73,4.98,1.95,10.79-9.64,16.56-11.48,23.24h5.2c1.34-5.81,9.76-10.85,8.35-20.24Z"></path>
            <g>
              <rect width="12.8" height="6.4" x="100.58" y="64.92" fill="#8eb6ba"></rect>
              <path fill="#78a0a3" d="M106.98,75.68h0c-1.87,0-3.39-1.52-3.39-3.39h6.78c0,1.87-1.52,3.39-3.39,3.39Z"></path>
              <path fill="#8eb6ba" d="M109.36,74.54h-4.75c-2.22,0-4.03-1.8-4.03-4.03h12.8c0,2.22-1.8,4.03-4.02,4.03Z"></path>
              <path fill="#78a0a3" d="M113.56 65.12h-13.16c-.43 0-.78-.35-.78-.78h0c0-.43.35-.78.78-.78h13.16c.43 0 .78.35.78.78h0c0 .43-.35.78-.78.78ZM113.56 68.41h-13.16c-.43 0-.78-.35-.78-.78h0c0-.43.35-.78.78-.78h13.16c.43 0 .78.35.78.78h0c0 .43-.35.78-.78.78ZM113.56 71.71h-13.16c-.43 0-.78-.35-.78-.78h0c0-.43.35-.78.78-.78h13.16c.43 0 .78.35.78.78h0c0 .43-.35.78-.78.78Z"></path>
              <g opacity=".2">
                <path fill="#78a0a3" d="M113.56,65.12c.43,0,.78-.35.78-.78s-.35-.78-.78-.78h-3.32v6.6c0,2.48-.76,4.26-1.68,5.14.37-.19.7-.45.97-.76,1.73-.07,3.18-1.23,3.67-2.81h.36c.43,0,.78-.35.78-.78s-.35-.78-.78-.78h-.18v-1.73h.18c.43,0,.78-.35.78-.78s-.35-.78-.78-.78h-.18v-1.73h.18Z"></path>
              </g>
            </g>
            <g>
              <path fill="#fde45e" d="M102.09 35.1c-.33 0-.64-.2-.77-.53-.16-.42.05-.9.48-1.06.27-.1.55-.2.83-.28.44-.13.89.12 1.02.55.13.43-.12.89-.55 1.02-.25.07-.49.15-.72.24-.1.04-.19.05-.29.05ZM95.33 42.32c-.08 0-.16-.01-.23-.03-.43-.13-.68-.58-.55-1.02.04-.15 1.1-3.64 4.33-6.13.36-.28.88-.21 1.15.15.28.36.21.87-.15 1.15-2.8 2.15-3.75 5.26-3.76 5.29-.11.36-.43.59-.79.59Z"></path>
            </g>
          </g>
          <path fill="#fdd43e" d="M106.98 30c-.26 0-.46-.21-.46-.46v-3.39c0-.26.21-.46.46-.46s.46.21.46.46v3.39c0 .26-.21.46-.46.46ZM125.95 44.79h-2.94c-.26 0-.46-.21-.46-.46s.21-.46.46-.46h2.94c.26 0 .46.21.46.46s-.21.46-.46.46ZM90.8 44.82h0l-3.24-.06c-.26 0-.46-.22-.45-.47 0-.26.22-.44.47-.45l3.24.06c.26 0 .46.22.45.47 0 .25-.21.45-.46.45ZM118.09 33.68c-.12 0-.24-.05-.33-.14-.18-.18-.18-.47 0-.65l1.93-1.93c.18-.18.47-.18.65 0 .18.18.18.47 0 .65l-1.93 1.93c-.09.09-.21.14-.33.14ZM95.92 33.73c-.12 0-.24-.04-.33-.14l-2.03-2.03c-.18-.18-.18-.47 0-.65.18-.18.47-.18.65 0l2.03 2.03c.18.18.18.47 0 .65-.09.09-.21.14-.33.14Z"></path>
        </g>
        <g>
          <path fill="#e08f19" d="M152.46,209.27s-10.25.17-14.46-9.92c-4.2-10.09,15.63-4.2,15.63-4.2l-1.18,14.12Z"></path>
          <polygon fill="#e08f19" points="139.43 203.94 143.47 208.1 134.01 207.47 133.38 205.83 139.43 203.94"></polygon>
          <path fill="#ffbd9c" d="M146.29,111.31s4.69,4.18,17.08,0c-.12-11.34,0-13.41,0-13.41v-5.41l-.51-2.61-10.31,4.63-6.09,10.23-.04.06-.04,1.73-.08,4.79Z"></path>
          <path fill="#1b2e34" d="M135.87,71.82c-1.96-2.61-.13-11.86,12.38-12.51,12.51-.65,22.68,5.61,23.46,18.64.39,5.61-2.22,13.56-8.34,19.95v-5.48c1.71-.12,3.72-2.33,4.24-3.77.65-1.83,2.15-7.3-2.02-8.21-4.17-.91-4.56,5.21-4.95,8.21-2.87-4.69-4.82-12.78-4.82-12.78-10.17,4.17-18.64.26-18.64.26,0,0-.06,2,.04,5.92l-.3-.18s-6.91-3.52-1.04-10.04Z"></path>
          <path fill="#ffbd9c" d="M137.43,87.86c.35,7.04,2.92,15.23,8.17,16.71.6.16,1.21.25,1.87.23,6.42-.37,10.25-4.4,12.37-7.84.02-.02.02-.04.02-.06,1.6-2.61,2.22-4.86,2.22-4.86,1.81,1.56,4.88-1.58,5.53-3.39.66-1.83,2.16-7.3-2.02-8.21-4.18-.93-4.57,5.21-4.96,8.21-2.86-4.69-4.81-12.78-4.81-12.78-10.18,4.18-18.64.27-18.64.27,0,0-.14,3.91.25,11.73Z"></path>
          <path fill="#f79d78" d="M146.38,106.52c9.22,1.09,12.72-7.41,13.46-9.57-2.12,3.44-5.95,7.47-12.37,7.84-.35.02-.68,0-1.01-.06l-.04.06-.04,1.73Z"></path>
          <path fill="#4e94f4" d="M146.41,108.3s.53,4.86,7.49,4.2c6.96-.66,9.46-6.96,9.46-6.96,0,0,14.66,5.79,21.05,9.54.73.43,1.15,1.21,1.11,2.06-.31,6.08-1.58,30.92-1.27,31.38.35.53,6.13,25.53.08,41.16-6.05,15.63-33.88-10.87-33.88-10.87l-20.14-4.73c-4.53-1.16-7.99-3.29-9.11-7.49l5.25-12.74s-.66-24.82.26-30.73c.92-5.91,5.78-8.4,9.19-10.11,3.41-1.71,10.51-4.73,10.51-4.73Z"></path>
          <path fill="#3664c6" d="M132.29,121.87c4.23,9.61,3.68,20.77,2.02,30.93-.71-10.38-.09-20.7-2.02-30.93h0Z"></path>
          <g>
            <g>
              <path fill="#fabb85" d="M166.15,161.31s-5.1-.69-6.68-1.26c-1.58-.57-6.76-4.08-9.76-4.2-3-.12-9,.6-9.86,2.68-.43,1.04,1.04,1.4,3.46.91,2.42-.49,6.99,2.25,12.01,6.47,3.41,2.87,8.09,2.78,8.09,2.78,0,0,2.43-2.32,2.75-7.38Z"></path>
              <path fill="#fabb85" d="M144.08,165.17c-.16.03-.33.03-.5,0-.94-.13-1.17-1.86-.95-3.09.06-.33.56-2.85,2.24-4.12,2.24-1.68,4.14-1.54,4.35-1.51.95.12,1.62.99,1.5,1.94-.12.95-.99,1.62-1.94,1.5.01,0-.05,0-.16.02-.27.04-.87.2-1.61.78-.91.72-1.52,2.09-1.59,2.61-.11.77-.6,1.76-1.33,1.88Z"></path>
              <path fill="#fabb85" d="M147.56,166.07c-.16.03-.33.03-.5,0-.94-.13-1.29-1.13-1.16-2.07.04-.33.17-3.12,2.35-4.84,2.2-1.73,4.14-1.54,4.35-1.51.95.12,1.62.99,1.5,1.94-.12.95-.99,1.62-1.94,1.5,0,0-.05,0-.16.02-.27.04-.87.2-1.61.78-.91.72-1.39,1.4-1.69,1.98-.36.69-.4,2.09-1.13,2.21Z"></path>
              <path fill="#fabb85" d="M151.48,166.1c-.32.25-.78.34-1.11.1-.27-.2-.49-.71-.55-1.04-.03-.2-.36-1.74.71-3.18.45-.6,1.29-1.36,2.85-1.58.72-.1,1.44.38,1.54,1.1.1.72-.4,1.36-1.13,1.47-.56.07-1.71.49-1.83,1.91-.04.42-.18.99-.48,1.22Z"></path>
            </g>
            <path fill="#4e94f4" d="M183.11,116.23c.49-.43,1.19-1.48,1.92-.71,2.91,3.1,11.12,13.09,14.27,27.55,3.98,18.25,5.3,29.67-1.84,34.82-2.04,1.47-6.74,1.36-12.42.45-14.24-2.27-24.36-8.3-24.36-8.3l2.32-10.2,21.42,2.68s-7.5-16.02-7.25-33.59c.67-5.88,2.69-9.83,5.94-12.7Z"></path>
          </g>
          <path fill="#3a4561" d="M96.7,205.83s-5.04-.67-10.09-.76c-7.56-.13-12.23,2.14-12.86,4.79-.63,2.65,6.18,7.69,20.42,7.69,7.06,0,9.83-2.4,9.83-2.4l-7.31-9.33Z"></path>
          <path fill="#e08f19" d="M139.85,172.97s-32.61-13.11-44.71-13.11-12.1,8.24-7.4,15.13c4.71,6.89,23.36,21.01,23.36,21.01l32.78-17.82-4.03-5.21Z"></path>
          <path fill="#c67b17" d="M113.04,171.66c5.63,5.45,10.36,11.62,14.12,18.49-5.64-5.44-10.35-11.62-14.12-18.49h0Z"></path>
          <g>
            <g>
              <path fill="#223861" d="M142.98,175.22h33.54v-.24c0-1.64-1.33-2.97-2.97-2.97h-30.57v3.21Z"></path>
              <path fill="#223861" d="M132.31,137.75c1.04,0,1.95.68,2.25,1.67l11.34,35.8h-4.95l-11.85-37.46h3.21Z"></path>
              <path fill="#2b488c" d="M143.44,175.22l-11.28-35.59c-.34-1.11-1.36-1.87-2.53-1.87h-40.09c-1.16,0-1.96,1.15-1.56,2.24l12.8,34.05c.26.7.93,1.17,1.68,1.17h40.99Z"></path>
            </g>
            <path fill="#cce3f2" d="M116.94,156.69c.22,1.12-.51,2.02-1.63,2.02s-2.2-.91-2.41-2.02c-.22-1.12.51-2.02,1.63-2.02s2.2.91,2.41,2.02Z"></path>
          </g>
          <path fill="#f2a74c" d="M148.76,201.21s1.42,13.99,12.77,15.63c11.6,1.68,22.19-4.87,22.69-20.84.5-15.97-4.71-26.73-12.61-31.94-7.9-5.21-18.49,3.19-25.38,8.07-6.89,4.87-50.59,31.43-50.59,31.43,0,0,1.01,9.08,8.07,12.94l45.05-15.3Z"></path>
          <path fill="#d38b3d" d="M148.76,201.21c4.77-2.87,12.08-5.52,17.23-7.65-4.64,4.46-10.97,6.67-17.23,7.65h0Z"></path>
          <path fill="#3a4561" d="M146.42,211.06c-.5-2.3-2.33-4.08-4.65-4.48-3.05-.53-7.5-1.15-11.79-1.17-7.56-.04-12.33,2.12-12.86,4.79-.88,4.45,6.18,7.69,20.42,7.69,1.79,0,3.31-.15,4.57-.38,3-.55,4.94-3.46,4.3-6.44h0Z"></path>
          <path fill="#3664c6" d="M163,159.84c7.19.48,14.35,1.19,21.51,1.95,0,0-.76,1.04-.76,1.04-5.18-12.08-13-37.03-.64-46.6-3.46,3.28-5.03,8.3-5.37,12.71.29,11.4,2.96,22.77,7.35,33.27.26.5-.2,1.13-.76,1.04-7.13-1.03-14.24-2.1-21.33-3.4h0Z"></path>
        </g>
        <path fill="#3a4561" d="M282.08,218.45H39.84c-1.22,0-2.21-.66-2.21-1.48h0c0-.81.99-1.48,2.21-1.48h242.24c1.22,0,2.21.66,2.21,1.48h0c0,.81-.99,1.48-2.21,1.48Z"></path>
        <path fill="#aac2e8" d="M202.16,55.48h-1.97l-.54.54v1.97c0,.62-.49,1.11-1.11,1.11s-1.11-.5-1.11-1.11v-1.97l-.51-.54h-1.99c-.62,0-1.11-.5-1.11-1.11s.5-1.11,1.11-1.11h1.99l.51-.54v-1.97c0-.62.5-1.11,1.11-1.11s1.11.5,1.11,1.11v1.97l.54.54h1.97c.61,0,1.11.5,1.11,1.11s-.5,1.11-1.11,1.11Z"></path>
        <g>
          <path fill="#aac2e8" d="M233.88 50.31c-.64 0-1.16.52-1.16 1.16s.51 1.15 1.16 1.15h11.55c.64 0 1.15-.51 1.15-1.15s-.52-1.16-1.15-1.16h-11.55ZM250.37 50.31c-.64 0-1.16.52-1.16 1.16s.52 1.15 1.16 1.15h2.12c.64 0 1.15-.51 1.15-1.15s-.52-1.16-1.15-1.16h-2.12Z"></path>
        </g>
        <g>
          <path fill="#aac2e8" d="M98.17 117.47c.64 0 1.16.52 1.16 1.16s-.51 1.15-1.16 1.15h-11.55c-.64 0-1.15-.51-1.15-1.15s.52-1.16 1.15-1.16h11.55ZM81.68 117.47c.64 0 1.16.52 1.16 1.16s-.52 1.15-1.16 1.15h-2.12c-.64 0-1.15-.51-1.15-1.15s.52-1.16 1.15-1.16h2.12Z"></path>
        </g>
        <path fill="#aac2e8" d="M212.66 27.68c0 1.19-.96 2.15-2.15 2.15s-2.15-.96-2.15-2.15.96-2.15 2.15-2.15 2.15.96 2.15 2.15ZM274.77 92.72c0 1.19-.96 2.15-2.15 2.15s-2.15-.96-2.15-2.15.96-2.15 2.15-2.15 2.15.96 2.15 2.15ZM75.05 84.36c0 1.19-.96 2.15-2.15 2.15s-2.15-.96-2.15-2.15.96-2.15 2.15-2.15 2.15.96 2.15 2.15ZM272 139.57c0 2.73 2.22 4.94 4.94 4.94s4.94-2.22 4.94-4.94-2.22-4.94-4.94-4.94-4.94 2.22-4.94 4.94ZM274 139.57c0-1.62 1.32-2.94 2.94-2.94s2.94 1.32 2.94 2.94-1.32 2.94-2.94 2.94-2.94-1.32-2.94-2.94Z"></path>
        <g>
          <g>
            <path fill="#cce3f2" d="M187.56 35.23s.01-.1.01-.15c0-10.75-10.09-19.46-22.53-19.46s-22.53 8.71-22.53 19.46c0 .05 0 .1 0 .15h45.05ZM159.79 35.98v.04c0 2.9 2.35 5.25 5.24 5.25s5.25-2.35 5.25-5.25c0-.01 0-.02 0-.04h-10.49Z"></path>
          </g>
          <path fill="#cce3f2" d="M165.46,0v17.32h-.85V.3c.06-.01.1-.03.16-.06.12-.04.22-.09.36-.12.1-.04.21-.07.33-.12Z"></path>
        </g>
      </g>
    </g>
  </g>
</svg>
