<?xml version="1.0" encoding="UTF-8"?>
<svg xmlns="http://www.w3.org/2000/svg" xmlns:xlink="http://www.w3.org/1999/xlink" width="367px" height="40px" viewBox="0 0 367 40" version="1.1">
<g id="surface1">
<path style=" stroke:none;fill-rule:nonzero;fill:rgb(49.411765%,60.784314%,100%);fill-opacity:1;" d="M 32.984375 2.355469 C 34.285156 3.652344 34.285156 5.761719 32.984375 7.0625 L 13.355469 26.707031 C 12.054688 28.003906 9.949219 28.003906 8.652344 26.707031 C 7.351562 25.40625 7.351562 23.296875 8.652344 22 L 28.28125 2.355469 C 29.582031 1.054688 31.6875 1.054688 32.984375 2.355469 Z M 32.984375 2.355469 "/>
<path style=" stroke:none;fill-rule:nonzero;fill:rgb(35.294118%,49.803922%,100%);fill-opacity:1;" d="M 32.984375 2.355469 C 34.285156 3.652344 34.285156 5.761719 32.984375 7.0625 L 14.847656 25.214844 C 13.546875 26.511719 11.441406 26.511719 10.144531 25.214844 C 8.84375 23.914062 8.84375 21.804688 10.144531 20.503906 L 28.28125 2.355469 C 29.582031 1.054688 31.6875 1.054688 32.984375 2.355469 Z M 32.984375 2.355469 "/>
<path style=" stroke:none;fill-rule:nonzero;fill:rgb(17.647059%,35.686275%,100%);fill-opacity:1;" d="M 32.984375 2.355469 C 34.285156 3.652344 34.285156 5.761719 32.984375 7.0625 L 16.976562 23.082031 C 15.675781 24.382812 13.570312 24.382812 12.269531 23.082031 C 10.972656 21.78125 10.972656 19.675781 12.269531 18.375 L 28.28125 2.355469 C 29.582031 1.054688 31.6875 1.054688 32.984375 2.355469 Z M 32.984375 2.355469 "/>
<path style=" stroke:none;fill-rule:nonzero;fill:rgb(49.411765%,60.784314%,100%);fill-opacity:1;" d="M 31.007812 11.785156 C 32.304688 10.484375 34.410156 10.484375 35.710938 11.785156 L 42.246094 18.324219 C 43.546875 19.625 43.546875 21.734375 42.246094 23.03125 C 40.949219 24.332031 38.839844 24.332031 37.542969 23.03125 L 31.007812 16.492188 C 29.707031 15.191406 29.707031 13.085938 31.007812 11.785156 Z M 31.007812 11.785156 "/>
<path style=" stroke:none;fill-rule:nonzero;fill:rgb(49.411765%,60.784314%,100%);fill-opacity:1;" d="M 40.414062 2.355469 C 41.714844 1.054688 43.820312 1.054688 45.117188 2.355469 L 64.660156 21.910156 C 65.960938 23.210938 65.960938 25.320312 64.660156 26.617188 C 63.363281 27.917969 61.257812 27.917969 59.957031 26.617188 L 40.414062 7.0625 C 39.117188 5.761719 39.117188 3.652344 40.414062 2.355469 Z M 40.414062 2.355469 "/>
<path style=" stroke:none;fill-rule:nonzero;fill:rgb(35.294118%,49.803922%,100%);fill-opacity:1;" d="M 31.007812 11.769531 C 32.304688 10.46875 34.410156 10.46875 35.710938 11.769531 L 40.976562 17.035156 C 42.273438 18.335938 42.273438 20.445312 40.976562 21.746094 C 39.675781 23.042969 37.570312 23.042969 36.269531 21.746094 L 31.007812 16.476562 C 29.707031 15.175781 29.707031 13.070312 31.007812 11.769531 Z M 31.007812 11.769531 "/>
<path style=" stroke:none;fill-rule:nonzero;fill:rgb(17.647059%,35.686275%,100%);fill-opacity:1;" d="M 31.007812 11.769531 C 32.304688 10.46875 34.410156 10.46875 35.710938 11.769531 L 38.828125 14.886719 C 40.125 16.1875 40.125 18.296875 38.828125 19.59375 C 37.527344 20.894531 35.421875 20.894531 34.125 19.59375 L 31.007812 16.476562 C 29.707031 15.175781 29.707031 13.070312 31.007812 11.769531 Z M 31.007812 11.769531 "/>
<path style=" stroke:none;fill-rule:nonzero;fill:rgb(17.647059%,35.686275%,100%);fill-opacity:1;" d="M 45.117188 2.355469 C 46.417969 3.652344 46.417969 5.761719 45.117188 7.0625 L 35.710938 16.476562 C 34.410156 17.777344 32.304688 17.777344 31.007812 16.476562 C 29.707031 15.175781 29.707031 13.070312 31.007812 11.769531 L 40.414062 2.355469 C 41.714844 1.054688 43.820312 1.054688 45.117188 2.355469 Z M 45.117188 2.355469 "/>
<path style=" stroke:none;fill-rule:nonzero;fill:rgb(35.294118%,49.803922%,100%);fill-opacity:1;" d="M 40.414062 2.355469 C 41.714844 1.054688 43.820312 1.054688 45.117188 2.355469 L 63.257812 20.503906 C 64.554688 21.804688 64.554688 23.914062 63.257812 25.214844 C 61.957031 26.511719 59.851562 26.511719 58.554688 25.214844 L 40.414062 7.0625 C 39.117188 5.761719 39.117188 3.652344 40.414062 2.355469 Z M 40.414062 2.355469 "/>
<path style=" stroke:none;fill-rule:nonzero;fill:rgb(17.647059%,35.686275%,100%);fill-opacity:1;" d="M 40.414062 2.355469 C 41.714844 1.054688 43.820312 1.054688 45.117188 2.355469 L 61.128906 18.375 C 62.429688 19.675781 62.429688 21.78125 61.128906 23.082031 C 59.828125 24.382812 57.722656 24.382812 56.425781 23.082031 L 40.414062 7.0625 C 39.117188 5.761719 39.117188 3.652344 40.414062 2.355469 Z M 40.414062 2.355469 "/>
<path style=" stroke:none;fill-rule:nonzero;fill:rgb(49.411765%,60.784314%,100%);fill-opacity:1;" d="M 7.054688 28.300781 C 8.355469 29.601562 8.355469 31.710938 7.054688 33.007812 C 5.757812 34.308594 3.652344 34.308594 2.351562 33.007812 C 1.054688 31.710938 1.054688 29.601562 2.351562 28.300781 C 3.652344 27 5.757812 27 7.054688 28.300781 Z M 7.054688 28.300781 "/>
<path style=" stroke:none;fill-rule:nonzero;fill:rgb(49.411765%,60.784314%,100%);fill-opacity:1;" d="M 66.34375 28.300781 C 67.644531 27.003906 69.75 27.003906 71.046875 28.300781 C 72.347656 29.601562 72.347656 31.710938 71.046875 33.011719 C 69.75 34.308594 67.644531 34.308594 66.34375 33.011719 C 65.046875 31.710938 65.046875 29.601562 66.34375 28.300781 Z M 66.34375 28.300781 "/>
<path style=" stroke:none;fill-rule:nonzero;fill:rgb(17.647059%,35.686275%,100%);fill-opacity:1;" d="M 89.683594 30.546875 L 89.683594 2.332031 L 89.722656 2.332031 L 104.042969 22.679688 L 102.496094 22.375 L 116.78125 2.332031 L 116.855469 2.332031 L 116.855469 30.546875 L 113.226562 30.546875 L 113.226562 10.652344 L 113.453125 12.507812 L 103.136719 27.105469 L 103.0625 27.105469 L 92.59375 12.507812 L 93.238281 10.804688 L 93.238281 30.546875 Z M 122.476562 22.566406 C 122.476562 21.003906 122.84375 19.589844 123.574219 18.332031 C 124.328125 17.070312 125.363281 16.074219 126.671875 15.34375 C 127.980469 14.613281 129.46875 14.246094 131.132812 14.246094 C 132.84375 14.246094 134.34375 14.613281 135.628906 15.34375 C 136.914062 16.074219 137.910156 17.070312 138.613281 18.332031 C 139.320312 19.589844 139.671875 21.003906 139.671875 22.566406 C 139.671875 24.128906 139.320312 25.554688 138.613281 26.839844 C 137.910156 28.101562 136.902344 29.097656 135.589844 29.828125 C 134.304688 30.558594 132.808594 30.921875 131.09375 30.921875 C 129.429688 30.921875 127.945312 30.582031 126.632812 29.902344 C 125.347656 29.195312 124.328125 28.226562 123.574219 26.992188 C 122.84375 25.730469 122.476562 24.253906 122.476562 22.566406 Z M 125.992188 22.605469 C 125.992188 23.613281 126.21875 24.53125 126.671875 25.363281 C 127.125 26.171875 127.730469 26.8125 128.484375 27.292969 C 129.265625 27.773438 130.125 28.011719 131.054688 28.011719 C 132.039062 28.011719 132.90625 27.773438 133.664062 27.292969 C 134.445312 26.8125 135.046875 26.171875 135.476562 25.363281 C 135.90625 24.53125 136.121094 23.613281 136.121094 22.605469 C 136.121094 21.59375 135.90625 20.6875 135.476562 19.878906 C 135.046875 19.046875 134.445312 18.394531 133.664062 17.914062 C 132.90625 17.410156 132.039062 17.15625 131.054688 17.15625 C 130.097656 17.15625 129.230469 17.410156 128.449219 17.914062 C 127.691406 18.417969 127.085938 19.085938 126.632812 19.917969 C 126.207031 20.726562 125.992188 21.621094 125.992188 22.605469 Z M 147.566406 14.890625 L 147.90625 19.425781 L 147.71875 18.820312 C 148.121094 17.863281 148.699219 17.058594 149.457031 16.402344 C 150.238281 15.722656 151.042969 15.203125 151.875 14.851562 C 152.730469 14.472656 153.476562 14.285156 154.105469 14.285156 L 153.914062 17.761719 C 152.730469 17.6875 151.6875 17.914062 150.777344 18.445312 C 149.898438 18.972656 149.191406 19.679688 148.664062 20.5625 C 148.160156 21.445312 147.90625 22.390625 147.90625 23.398438 L 147.90625 30.546875 L 144.429688 30.546875 L 144.429688 14.890625 Z M 167.859375 30.921875 C 166.675781 30.921875 165.527344 30.644531 164.421875 30.089844 C 163.335938 29.535156 162.492188 28.792969 161.886719 27.859375 L 162.113281 26.761719 L 162.113281 38.070312 L 158.636719 38.070312 L 158.636719 14.660156 L 161.660156 14.660156 L 162.152344 18.671875 L 161.773438 17.574219 C 162.53125 16.617188 163.488281 15.820312 164.648438 15.191406 C 165.804688 14.5625 167.101562 14.246094 168.539062 14.246094 C 170 14.246094 171.308594 14.597656 172.46875 15.304688 C 173.652344 16.011719 174.585938 16.992188 175.265625 18.253906 C 175.945312 19.515625 176.285156 20.988281 176.285156 22.679688 C 176.285156 24.367188 175.921875 25.832031 175.191406 27.066406 C 174.460938 28.300781 173.453125 29.257812 172.167969 29.941406 C 170.90625 30.597656 169.472656 30.921875 167.859375 30.921875 Z M 167.179688 28.125 C 168.1875 28.125 169.105469 27.898438 169.9375 27.445312 C 170.792969 26.964844 171.476562 26.324219 171.976562 25.515625 C 172.480469 24.683594 172.734375 23.75 172.734375 22.71875 C 172.734375 21.65625 172.496094 20.726562 172.015625 19.917969 C 171.539062 19.085938 170.894531 18.429688 170.089844 17.953125 C 169.308594 17.472656 168.425781 17.234375 167.445312 17.234375 C 166.535156 17.234375 165.71875 17.410156 164.988281 17.761719 C 164.257812 18.117188 163.652344 18.609375 163.171875 19.238281 C 162.695312 19.84375 162.355469 20.550781 162.152344 21.355469 L 162.152344 23.964844 C 162.277344 24.773438 162.582031 25.492188 163.058594 26.121094 C 163.539062 26.75 164.128906 27.242188 164.835938 27.59375 C 165.566406 27.949219 166.347656 28.125 167.179688 28.125 Z M 181.039062 14.890625 L 184.554688 14.890625 L 184.554688 30.546875 L 181.039062 30.546875 Z M 180.773438 9.214844 C 180.773438 8.660156 180.988281 8.195312 181.417969 7.816406 C 181.871094 7.4375 182.363281 7.25 182.890625 7.25 C 183.421875 7.25 183.886719 7.4375 184.289062 7.816406 C 184.71875 8.195312 184.933594 8.660156 184.933594 9.214844 C 184.933594 9.796875 184.71875 10.273438 184.289062 10.652344 C 183.886719 11.007812 183.421875 11.183594 182.890625 11.183594 C 182.363281 11.183594 181.871094 10.992188 181.417969 10.617188 C 180.988281 10.238281 180.773438 9.769531 180.773438 9.214844 Z M 203.332031 29.109375 C 202.625 29.664062 201.78125 30.105469 200.800781 30.433594 C 199.816406 30.761719 198.835938 30.921875 197.851562 30.921875 C 196.140625 30.921875 194.640625 30.582031 193.355469 29.902344 C 192.070312 29.222656 191.0625 28.277344 190.332031 27.066406 C 189.628906 25.832031 189.273438 24.382812 189.273438 22.71875 C 189.273438 21.054688 189.652344 19.601562 190.40625 18.367188 C 191.1875 17.132812 192.195312 16.1875 193.429688 15.53125 C 194.691406 14.851562 196.039062 14.511719 197.472656 14.511719 C 198.734375 14.511719 199.855469 14.6875 200.835938 15.039062 C 201.84375 15.394531 202.703125 15.871094 203.40625 16.476562 L 201.667969 18.746094 C 201.214844 18.394531 200.660156 18.078125 200.007812 17.800781 C 199.351562 17.523438 198.609375 17.382812 197.777344 17.382812 C 196.871094 17.382812 196.027344 17.625 195.246094 18.101562 C 194.488281 18.558594 193.882812 19.1875 193.429688 19.996094 C 193.003906 20.800781 192.789062 21.707031 192.789062 22.71875 C 192.789062 23.675781 193.015625 24.570312 193.46875 25.402344 C 193.921875 26.207031 194.550781 26.851562 195.359375 27.332031 C 196.164062 27.785156 197.085938 28.011719 198.117188 28.011719 C 198.796875 28.011719 199.414062 27.910156 199.96875 27.710938 C 200.546875 27.507812 201.0625 27.230469 201.519531 26.878906 Z M 207.867188 30.546875 L 207.867188 1.273438 L 211.308594 1.273438 L 211.308594 18.519531 L 211.230469 17.875 C 211.761719 16.84375 212.566406 15.984375 213.652344 15.304688 C 214.757812 14.625 216.058594 14.285156 217.542969 14.285156 C 219.03125 14.285156 220.238281 14.726562 221.171875 15.605469 C 222.128906 16.464844 222.621094 17.585938 222.644531 18.972656 L 222.644531 30.546875 L 219.09375 30.546875 L 219.09375 20.222656 C 219.066406 19.363281 218.816406 18.671875 218.335938 18.140625 C 217.882812 17.585938 217.164062 17.308594 216.183594 17.308594 C 215.277344 17.308594 214.457031 17.574219 213.726562 18.101562 C 212.996094 18.609375 212.417969 19.300781 211.988281 20.183594 C 211.585938 21.066406 211.382812 22.074219 211.382812 23.207031 L 211.382812 30.546875 Z M 239.582031 3.203125 L 257.71875 3.203125 L 257.71875 6.71875 L 250.386719 6.71875 L 250.386719 30.546875 L 246.722656 30.546875 L 246.722656 6.71875 L 239.582031 6.71875 Z M 262.671875 30.546875 L 262.671875 1.273438 L 266.109375 1.273438 L 266.109375 18.519531 L 266.035156 17.875 C 266.5625 16.84375 267.371094 15.984375 268.453125 15.304688 C 269.5625 14.625 270.859375 14.285156 272.347656 14.285156 C 273.832031 14.285156 275.042969 14.726562 275.972656 15.605469 C 276.933594 16.464844 277.421875 17.585938 277.449219 18.972656 L 277.449219 30.546875 L 273.894531 30.546875 L 273.894531 20.222656 C 273.871094 19.363281 273.617188 18.671875 273.140625 18.140625 C 272.6875 17.585938 271.96875 17.308594 270.984375 17.308594 C 270.078125 17.308594 269.261719 17.574219 268.527344 18.101562 C 267.796875 18.609375 267.21875 19.300781 266.789062 20.183594 C 266.386719 21.066406 266.1875 22.074219 266.1875 23.207031 L 266.1875 30.546875 Z M 290.816406 30.921875 C 289.027344 30.921875 287.492188 30.570312 286.207031 29.863281 C 284.921875 29.132812 283.925781 28.148438 283.21875 26.914062 C 282.539062 25.65625 282.199219 24.21875 282.199219 22.605469 C 282.199219 21.066406 282.589844 19.667969 283.371094 18.40625 C 284.152344 17.144531 285.199219 16.136719 286.507812 15.378906 C 287.816406 14.625 289.277344 14.246094 290.890625 14.246094 C 292.957031 14.246094 294.671875 14.851562 296.03125 16.0625 C 297.390625 17.269531 298.3125 18.933594 298.789062 21.054688 L 285.902344 25.589844 L 285.070312 23.511719 L 295.652344 19.652344 L 294.898438 20.144531 C 294.59375 19.3125 294.089844 18.59375 293.386719 17.988281 C 292.679688 17.359375 291.761719 17.042969 290.625 17.042969 C 289.667969 17.042969 288.8125 17.285156 288.058594 17.761719 C 287.300781 18.214844 286.710938 18.847656 286.28125 19.652344 C 285.851562 20.460938 285.636719 21.382812 285.636719 22.414062 C 285.636719 23.5 285.867188 24.457031 286.320312 25.289062 C 286.773438 26.09375 287.390625 26.738281 288.171875 27.21875 C 288.976562 27.671875 289.882812 27.898438 290.890625 27.898438 C 291.570312 27.898438 292.226562 27.773438 292.855469 27.519531 C 293.511719 27.269531 294.117188 26.941406 294.671875 26.535156 L 296.296875 29.144531 C 295.515625 29.675781 294.632812 30.105469 293.648438 30.433594 C 292.691406 30.761719 291.746094 30.921875 290.816406 30.921875 Z M 306.328125 14.890625 L 306.632812 18.40625 L 306.480469 18.101562 C 307.058594 16.917969 307.878906 15.984375 308.9375 15.304688 C 310.019531 14.625 311.253906 14.285156 312.640625 14.285156 C 313.523438 14.285156 314.304688 14.421875 314.984375 14.699219 C 315.664062 14.976562 316.21875 15.378906 316.644531 15.910156 C 317.101562 16.414062 317.390625 17.042969 317.515625 17.800781 L 317.328125 17.914062 C 317.929688 16.78125 318.761719 15.898438 319.820312 15.265625 C 320.902344 14.613281 322.039062 14.285156 323.222656 14.285156 C 324.757812 14.285156 325.96875 14.726562 326.847656 15.605469 C 327.757812 16.464844 328.222656 17.585938 328.246094 18.972656 L 328.246094 30.546875 L 324.734375 30.546875 L 324.734375 20.222656 C 324.707031 19.414062 324.507812 18.746094 324.128906 18.214844 C 323.777344 17.660156 323.144531 17.359375 322.238281 17.308594 C 321.332031 17.308594 320.515625 17.585938 319.78125 18.140625 C 319.078125 18.695312 318.523438 19.414062 318.121094 20.296875 C 317.71875 21.152344 317.503906 22.085938 317.476562 23.09375 L 317.476562 30.546875 L 313.964844 30.546875 L 313.964844 20.222656 C 313.9375 19.414062 313.722656 18.746094 313.320312 18.214844 C 312.941406 17.660156 312.300781 17.359375 311.394531 17.308594 C 310.460938 17.308594 309.644531 17.585938 308.9375 18.140625 C 308.230469 18.695312 307.675781 19.414062 307.273438 20.296875 C 306.894531 21.179688 306.707031 22.125 306.707031 23.132812 L 306.707031 30.546875 L 303.191406 30.546875 L 303.191406 14.890625 Z M 341.632812 30.921875 C 339.84375 30.921875 338.308594 30.570312 337.023438 29.863281 C 335.738281 29.132812 334.742188 28.148438 334.035156 26.914062 C 333.355469 25.65625 333.015625 24.21875 333.015625 22.605469 C 333.015625 21.066406 333.40625 19.667969 334.1875 18.40625 C 334.96875 17.144531 336.015625 16.136719 337.324219 15.378906 C 338.636719 14.625 340.097656 14.246094 341.707031 14.246094 C 343.773438 14.246094 345.488281 14.851562 346.847656 16.0625 C 348.207031 17.269531 349.128906 18.933594 349.605469 21.054688 L 336.71875 25.589844 L 335.886719 23.511719 L 346.46875 19.652344 L 345.714844 20.144531 C 345.410156 19.3125 344.90625 18.59375 344.203125 17.988281 C 343.496094 17.359375 342.578125 17.042969 341.445312 17.042969 C 340.488281 17.042969 339.628906 17.285156 338.875 17.761719 C 338.117188 18.214844 337.527344 18.847656 337.097656 19.652344 C 336.667969 20.460938 336.457031 21.382812 336.457031 22.414062 C 336.457031 23.5 336.683594 24.457031 337.136719 25.289062 C 337.589844 26.09375 338.207031 26.738281 338.988281 27.21875 C 339.792969 27.671875 340.699219 27.898438 341.707031 27.898438 C 342.386719 27.898438 343.042969 27.773438 343.671875 27.519531 C 344.328125 27.269531 344.933594 26.941406 345.488281 26.535156 L 347.113281 29.144531 C 346.332031 29.675781 345.449219 30.105469 344.46875 30.433594 C 343.511719 30.761719 342.566406 30.921875 341.632812 30.921875 Z M 358.394531 30.847656 C 357.285156 30.847656 356.203125 30.660156 355.144531 30.28125 C 354.113281 29.878906 353.253906 29.285156 352.574219 28.503906 L 354.046875 26.460938 C 354.703125 27.089844 355.371094 27.570312 356.050781 27.898438 C 356.757812 28.199219 357.449219 28.351562 358.128906 28.351562 C 358.632812 28.351562 359.101562 28.289062 359.527344 28.164062 C 359.957031 28.035156 360.296875 27.835938 360.546875 27.558594 C 360.824219 27.253906 360.964844 26.851562 360.964844 26.347656 C 360.964844 25.792969 360.773438 25.351562 360.398438 25.023438 C 360.042969 24.695312 359.578125 24.429688 359 24.230469 C 358.445312 24.027344 357.851562 23.839844 357.222656 23.664062 C 355.9375 23.234375 354.957031 22.640625 354.273438 21.886719 C 353.59375 21.128906 353.253906 20.207031 353.253906 19.125 C 353.253906 18.292969 353.457031 17.523438 353.859375 16.816406 C 354.289062 16.085938 354.90625 15.492188 355.710938 15.039062 C 356.542969 14.585938 357.5625 14.359375 358.773438 14.359375 C 359.855469 14.359375 360.824219 14.496094 361.683594 14.773438 C 362.539062 15.027344 363.34375 15.457031 364.101562 16.0625 L 362.703125 18.253906 C 362.25 17.777344 361.707031 17.421875 361.078125 17.195312 C 360.445312 16.96875 359.878906 16.84375 359.375 16.816406 C 358.949219 16.792969 358.53125 16.855469 358.128906 17.007812 C 357.75 17.15625 357.4375 17.371094 357.183594 17.648438 C 356.933594 17.925781 356.808594 18.253906 356.808594 18.632812 C 356.808594 19.164062 356.984375 19.589844 357.335938 19.917969 C 357.6875 20.246094 358.140625 20.511719 358.695312 20.710938 C 359.277344 20.890625 359.84375 21.078125 360.398438 21.28125 C 361.179688 21.507812 361.871094 21.808594 362.476562 22.1875 C 363.078125 22.566406 363.558594 23.03125 363.910156 23.585938 C 364.289062 24.140625 364.476562 24.835938 364.476562 25.667969 C 364.476562 26.601562 364.25 27.46875 363.796875 28.277344 C 363.371094 29.058594 362.703125 29.6875 361.796875 30.167969 C 360.914062 30.621094 359.78125 30.847656 358.394531 30.847656 Z M 358.394531 30.847656 "/>
</g>
</svg>
